# xmcd
#
# Track frame offsets:
#	150
#	15391
#	30632
#	45873
#	61114
#
# Disc length: 1014 seconds
#
# Revision: 0
# Processed by: cddbd v1.5.2PL0 Copyright (c) Steve Scherf et al.
# Submitted via: audiograbber 1.83.01
#
DISCID=2a03f405
DTITLE=DONALDO 22 - DONALDO22
DYEAR=2008
DGENRE=Disco
TTITLE0=DONALDO22
TTITLE1=DONALDO22
TTITLE2=DONALDO22
TTITLE3=DONALDO22
TTITLE4=DONALDO22
EXTD=VOTE DONALDO 22
EXTT0=
EXTT1=
EXTT2=
EXTT3=
EXTT4=
PLAYORDER=
